<?xml version="1.0" standalone="no"?>
<!DOCTYPE svg PUBLIC "-//W3C//DTD SVG 20010904//EN"
 "http://www.w3.org/TR/2001/REC-SVG-20010904/DTD/svg10.dtd">
<svg version="1.0" xmlns="http://www.w3.org/2000/svg"
 width="256.000000pt" height="256.000000pt" viewBox="0 0 256.000000 256.000000"
 preserveAspectRatio="xMidYMid meet">
<metadata>
Created by potrace 1.14, written by Peter Selinger 2001-2017
</metadata>
<g transform="translate(0.000000,256.000000) scale(0.100000,-0.100000)"
fill="#000000" stroke="none">
<path d="M1169 2386 c-2 -2 -22 -6 -44 -10 -128 -18 -310 -93 -436 -180 l-67
-45 -136 -2 c-106 -1 -138 -4 -148 -16 -13 -16 -16 -52 -18 -241 -2 -111 -5
-130 -31 -194 -34 -82 -50 -140 -63 -218 -14 -82 -17 -112 -17 -180 -3 -194
39 -369 128 -538 33 -62 33 -63 33 -201 0 -177 -6 -170 159 -172 l123 -1 66
-42 c205 -129 403 -182 645 -173 73 3 143 7 157 11 14 3 39 8 55 12 102 20
294 103 379 164 40 29 45 30 170 33 114 3 129 5 139 23 6 10 12 76 13 149 l2
130 45 90 c81 162 115 309 115 500 1 150 -27 293 -81 422 -25 57 -27 74 -29
232 -2 94 -7 171 -11 171 -5 0 -6 4 -2 9 12 20 -33 28 -159 30 l-128 2 -75 50
c-91 61 -254 139 -325 153 -13 3 -34 8 -48 11 -77 18 -149 25 -271 25 -75 0
-138 -2 -140 -4z"/>
</g>
</svg>
